<svg xmlns="http://www.w3.org/2000/svg" viewBox="0 0 175.000000 175.000000">
  <g transform="translate(0.000000,175.000000) scale(0.100000,-0.100000)">
    <path d="M0 875 l0 -875 875 0 875 0 0 875 0 875 -875 0 -875 0 0 -875z m904
  711 c41 -8 158 -42 259 -75 256 -83 341 -94 465 -56 37 12 26 -8 -47 -82 -93
  -96 -135 -118 -231 -118 l-75 0 -3 -468 -2 -469 32 7 c18 4 62 18 98 32 93 35
  100 37 100 24 0 -19 -100 -91 -184 -131 -136 -66 -227 -85 -401 -84 -122 0
  -167 4 -240 22 -195 49 -344 154 -406 286 -134 286 21 560 426 752 139 66 165
  69 99 12 -111 -98 -201 -212 -244 -313 -31 -71 -43 -177 -30 -264 27 -190 139
  -303 342 -345 79 -16 229 -21 311 -10 l47 7 0 478 0 478 -33 19 c-17 11 -42
  23 -54 27 l-23 6 0 -381 c0 -435 1 -431 -79 -482 -53 -34 -120 -54 -208 -63
  -72 -7 -84 6 -26 30 77 32 73 13 73 348 l0 299 -32 29 c-18 18 -27 33 -22 38
  5 5 72 50 149 99 l140 91 -35 15 c-113 47 -307 70 -457 55 -112 -12 -260 -49
  -357 -89 -38 -16 -71 -28 -74 -26 -9 9 34 59 96 112 202 172 400 233 626 190z"></path>
  </g>
</svg>
