<svg xmlns="http://www.w3.org/2000/svg" viewBox="0 0 747.9 55.42"><path id="Flag" d="M40.7,7c0,1.3.1,6.2.2,7.3,0,.2-.7.1-.8,0-.6-4.9-2-8.6-10.5-8.6H24.3v34.6c0,11.8.1,12.4,6,13,.2.1.3,1,0,1a78,78,0,0,0-8.9-.6,75.68,75.68,0,0,0-10.2.6c-.3.1-.2-1,0-1,5.7-.7,5.9-.6,5.9-13V5.72H11.6c-8.3,0-9.9,3.6-10.8,8.6,0,.1-.8.2-.8,0,.3-1.7.4-7.7.4-10A27.66,27.66,0,0,0,.1.12C0-.08.9,0,.9.12c.3,2.1,1.8,3,10,3H30.4c8.1,0,9.8-.9,10.2-3,0-.1.8-.2.8,0A33.36,33.36,0,0,0,40.7,7m42.9,46.6a66.51,66.51,0,0,0-9.6.6c-.4.1-.2-.9-.1-1,4.9-.6,5.4-.7,5.4-13V28.72H58.6v11.5c0,11.8-.1,12.5,5,13,.1.1.3,1-.1,1a57.65,57.65,0,0,0-7.8-.6,85.44,85.44,0,0,0-10.8.6c-.4.1-.2-1-.1-1,6.4-.9,6.6-.6,6.6-13v-24c0-12.5-.1-12.1-6.6-13-.1,0-.3-1,.1-.9a85.44,85.44,0,0,0,10.8.6,45,45,0,0,0,7.8-.6c.4-.1.2.9.1.9-5.2.6-5,1.3-5,13V27H79.3V16.22c0-12.2-.5-12.3-5.4-13-.1,0-.3-1,.1-.9a66.51,66.51,0,0,0,9.6.6,65.53,65.53,0,0,0,9.4-.6c.3-.1.2.9,0,.9-6.6.7-6.5,1.1-6.5,13v24c0,11.9-.1,12.3,6.5,13,.2,0,.3,1,0,1a65.53,65.53,0,0,0-9.4-.6m44.2-1c-.3,1.2-.6,1.4-1.5,1.4-2.3,0-6.9-.4-11.5-.4-6.3,0-13.7.2-18.3.6-.3,0-.2-1-.1-1,6.4-.9,6.6-.6,6.6-13v-24c0-12.5-.1-12.1-6.6-13-.1,0-.3-.9.1-.9,4.6.4,11.7.6,17.9.6a120.28,120.28,0,0,0,12.9-.6,56,56,0,0,0-.4,6.4c0,.8.1,4.7.1,5.4,0,.2-.7.1-.8,0-.6-4.6-3.1-9.2-10.8-9.2h-5a92.57,92.57,0,0,0-.4,11v10.6h5.5c5.4,0,6.8-1.7,7.6-6.2,0-.1.8-.2.7,0a69.92,69.92,0,0,0-.4,8.3c0,.9,0,5.4.1,6,.1.2-.8.2-.8.1-.6-4.5-2.8-6.6-7.3-6.6h-5.3v12.7c0,10.7,1.2,10.9,4.1,10.9h2.9c7.6,0,10.4-5.7,11.7-11.9,0-.1.8-.1.7.2a109.9,109.9,0,0,1-1.7,12.6m42.4,1.5a57.65,57.65,0,0,0-7.8-.6,85.44,85.44,0,0,0-10.8.6c-.4.1-.2-1-.1-1,6.4-.9,6.6-.6,6.6-13v-24c0-12.5-.1-12.1-6.6-13-.1,0-.3-1,.1-.9a85.44,85.44,0,0,0,10.8.6,45,45,0,0,0,7.8-.6c.4-.1.2.9.1.9-5.2.6-5,1.3-5,13v24c0,11.8-.1,12.5,5,13,.1.2.3,1.1-.1,1m15.5-.5a55.23,55.23,0,0,0-8.8.6c-.3.1-.2-.9,0-1,2.8-.4,3.4-1,3.1-2.8-.3-1.4-3.8-6.7-6.8-11l-7.3-10.2,9.9-13.8a57.5,57.5,0,0,0,5.8-9.5c.7-1.8-.3-2.4-2.9-2.7-.1,0-.3-1,.1-.9a49.55,49.55,0,0,0,7.1.4,61.54,61.54,0,0,0,6.6-.4c.4-.1.2.9.1.9-6.4.6-8.6,3.5-14.9,12.2l-6.5,9,10.8,15c7.7,10.7,9.2,13,14.8,13.8.2.1.3,1,0,1a95.33,95.33,0,0,0-11.1-.6m53.2.5a76.67,76.67,0,0,0-9-.6,69.5,69.5,0,0,0-9.8.6c-.3.1-.3-1,0-1,2.9-.3,4.2-1,4.2-3.3s-1-5.6-2.3-9.6l-1.5-5H206.8l-1.7,4.9c-1.7,4.8-2.5,8-2.5,10.2,0,1.9,1.1,2.5,4.1,2.8.3,0,.3,1,0,1a39.35,39.35,0,0,0-6-.6,34.58,34.58,0,0,0-5.9.6c-.3.1-.3-1,0-1,3.7-.3,5.7-4.4,8.7-13l13.2-39c.1-.3.8-.3.9,0l12.2,39c2.9,9.3,4.4,12.5,9.3,13,.1.1.2,1.1-.2,1M214,13.82l-6.7,19.9h12.6Zm64.5,2.4v24c0,4,.3,11.4.4,14.6,0,.2-.6.2-.9-.1l-30.7-41.8v27.2c0,10.3.7,12.6,6,13,.1,0,.3,1-.1,1a35.18,35.18,0,0,0-6.2-.6,41.45,41.45,0,0,0-7.7.6c-.4.1-.2-1-.1-1,5.2-.5,6-2.8,6-13V12c0-1.5-4.8-8.4-7.1-8.8-.1,0-.3-1,.1-.9a99.66,99.66,0,0,0,11.2.6l27,36.8V16.22c0-9.2-.2-12.2-6-13-.1,0-.3-1,.1-.9a41.45,41.45,0,0,0,7.7.6,27.69,27.69,0,0,0,6.2-.6c.4-.1.3.9.1.9-5.3.6-6,3-6,13M297.9,55c-4.2,0-9.8-1.6-13.1-4.4-.4-.3.3-6.6.4-12.1,0-.3.8-.3.8-.2,1.6,8.2,6.4,14.8,12.5,14.8,4.7,0,8.7-2.7,8.7-8.8,0-14.5-21.5-12.6-21.5-28.5a15,15,0,0,1,14.8-14.5,28,28,0,0,1,8.9,1.4c1.1.3,1.3,5.1,1.3,11.4,0,.3-.8.2-.8.1-1.3-6.2-5.3-11-9.8-11-4.7,0-7.5,2.9-7.5,8.5,0,12.4,20.9,11,20.9,27.1,0,7.4-5.6,16.2-15.6,16.2m57.7-.9a76.67,76.67,0,0,0-9-.6,69.5,69.5,0,0,0-9.8.6c-.3.1-.3-1,0-1,2.9-.3,4.2-1,4.2-3.3s-1-5.6-2.3-9.6l-1.5-5H323.5l-1.7,4.9c-1.7,4.8-2.5,8-2.5,10.2,0,1.9,1.1,2.5,4.1,2.8.3,0,.3,1,0,1a39.35,39.35,0,0,0-6-.6,34.58,34.58,0,0,0-5.9.6c-.3.1-.3-1,0-1,3.7-.3,5.7-4.4,8.7-13l13.2-39c.1-.3.8-.3.9,0l12.2,39c2.9,9.3,4.4,12.5,9.3,13,.1.1.2,1.1-.2,1m-24.9-40.3L324,33.72h12.6ZM370.4,55c-4.2,0-9.8-1.6-13.1-4.4-.4-.3.3-6.6.4-12.1,0-.3.8-.3.8-.2,1.6,8.2,6.4,14.8,12.5,14.8,4.7,0,8.7-2.7,8.7-8.8,0-14.5-21.5-12.6-21.5-28.5A15,15,0,0,1,373,1.32a28,28,0,0,1,8.9,1.4c1.1.3,1.3,5.1,1.3,11.4,0,.3-.8.2-.8.1-1.3-6.2-5.3-11-9.8-11-4.7,0-7.5,2.9-7.5,8.5,0,12.4,20.9,11,20.9,27.1-.1,7.4-5.7,16.2-15.6,16.2m75.8-3.8c-1.7,1.5-6.6,4-13.8,4-14.4,0-23.6-11.9-23.6-25.9,0-14.6,10-28,24.2-28,6.8,0,11.7,2.3,13,3.5.4.4,1.5,8,1.7,12.9,0,.2-.8.2-.8.1-1-6.3-6.9-14.6-15.3-14.6-9,0-14.9,9.7-14.9,23,0,16.2,8.1,27.2,16.7,27.2,6.7,0,11.8-7.5,14-15.8.1-.2.8-.2.8.1-.3,4.8-1.5,13-2,13.5m14,2.4a75.68,75.68,0,0,0-10.2.6c-.4.1-.2-.9-.1-1,5.7-.7,6-.6,6-13v-24c0-12.3-.3-12.2-6-13-.1,0-.3-1,.1-.9a75.68,75.68,0,0,0,10.2.6,58,58,0,0,0,8.8-.6c.3-.1.2.9,0,.9-5.9.6-5.9,1.2-5.9,13v24c0,11.8.1,12.4,5.9,13,.2.1.3,1,0,1a57,57,0,0,0-8.8-.6M513,7c0,1.3.1,6.2.2,7.3,0,.2-.7.1-.8,0-.6-4.9-2-8.6-10.5-8.6h-5.3v34.6c0,11.8.1,12.4,6,13,.2.1.3,1,0,1a78,78,0,0,0-8.9-.6,75.68,75.68,0,0,0-10.2.6c-.3.1-.2-1,0-1,5.7-.7,5.9-.6,5.9-13V5.72h-5.5c-8.3,0-9.9,3.6-10.8,8.6,0,.1-.8.2-.8,0,.3-1.7.4-7.7.4-10a27.66,27.66,0,0,0-.3-4.2c-.1-.2.8-.1.8,0,.3,2.1,1.8,3,10,3h19.5c8.1,0,9.8-.9,10.2-3,0-.1.8-.2.8,0A33.36,33.36,0,0,0,513,7m36.6,9.6-6.4,12.3v11.4c0,11.8.1,12.4,6,13,.1.1.3,1-.1,1a88,88,0,0,0-9.6-.6,63.59,63.59,0,0,0-9.4.6c-.3.1-.2-.9-.1-1,5.7-.8,6-.6,6-13V30.12l-5.7-11.8c-6-12.4-7.7-14.5-13-15.2-.2,0-.3-1,0-.9a77.8,77.8,0,0,0,10.4.6,62.17,62.17,0,0,0,9.1-.6c.4-.1.2.9.1.9-5.6.6-4.1,3.5,1.6,15.2l4,8.2,5.2-10c5.9-11.5,6.3-12.6,1.1-13.4-.2,0-.3-1,0-.9a39.57,39.57,0,0,0,7.6.6,23.16,23.16,0,0,0,5.7-.6c.3-.1.2.9,0,.9-5.6.7-6.8,2.7-12.5,13.5M594.3,55c-4.2,0-9.8-1.6-13.1-4.4-.4-.3.3-6.6.4-12.1,0-.3.8-.3.8-.2,1.6,8.2,6.4,14.8,12.5,14.8,4.7,0,8.7-2.7,8.7-8.8,0-14.5-21.5-12.6-21.5-28.5a15,15,0,0,1,14.8-14.5,28,28,0,0,1,8.9,1.4c1.1.3,1.3,5.1,1.3,11.4,0,.3-.8.2-.8.1-1.3-6.2-5.3-11-9.8-11-4.7,0-7.5,2.9-7.5,8.5,0,12.4,20.9,11,20.9,27.1-.1,7.4-5.7,16.2-15.6,16.2M651.5,7c0,1.3.1,6.2.2,7.3,0,.2-.7.1-.8,0-.6-4.9-2-8.6-10.5-8.6h-5.3v34.6c0,11.8.1,12.4,6,13,.2.1.3,1,0,1a78,78,0,0,0-8.9-.6,75.68,75.68,0,0,0-10.2.6c-.3.1-.2-1,0-1,5.7-.7,5.9-.6,5.9-13V5.72h-5.5c-8.3,0-9.9,3.6-10.8,8.6,0,.1-.8.2-.8,0,.3-1.7.4-7.7.4-10a27.66,27.66,0,0,0-.3-4.2c-.1-.2.8-.1.8,0,.3,2.1,1.8,3,10,3h19.5c8.1,0,9.8-.9,10.2-3,0-.1.8-.2.8,0a33.36,33.36,0,0,0-.7,6.9M691,54.12a76.67,76.67,0,0,0-9-.6,69.5,69.5,0,0,0-9.8.6c-.3.1-.3-1,0-1,2.9-.3,4.2-1,4.2-3.3s-1-5.6-2.3-9.6l-1.5-5H658.9l-1.7,4.9c-1.7,4.8-2.5,8-2.5,10.2,0,1.9,1.1,2.5,4.1,2.8.3,0,.3,1,0,1a39.35,39.35,0,0,0-6-.6,34.58,34.58,0,0,0-5.9.6c-.3.1-.3-1,0-1,3.7-.3,5.7-4.4,8.7-13l13.2-39c.1-.3.8-.3.9,0l12.2,39c2.9,9.3,4.4,12.5,9.3,13,.1.1.2,1.1-.2,1m-24.9-40.3-6.7,19.9H672Zm70.5,41.6c-14.3,0-20.6-8.4-24.9-24.6a21.05,21.05,0,0,1-2.5.2,20.08,20.08,0,0,1-2.5-.1v9.4c0,12,.3,12.3,6,13,.2.1.3,1-.1,1a71.29,71.29,0,0,0-8.7-.6,87.12,87.12,0,0,0-10.9.6c-.4.1-.2-1-.1-1,6.4-.9,6.6-.6,6.6-13V17c0-10.2-.2-12.9-3.8-12.9-.6,0-1.5.2-2.4.3-.2,0-.4-.9-.1-1,3.6-1,8-1.3,17.5-1.3,11.8,0,17.3,5.2,17.3,12.2,0,6.6-4.1,11.5-9.6,14,3.3,11.7,11.5,24.8,18.2,26,.1.1.3,1.1,0,1.1M709.3,3.82a13.61,13.61,0,0,0-2.1.2c-.4,1.6-.6,5.8-.6,11.8V29a19.48,19.48,0,0,0,2.5.2c8,0,11.1-4.7,11.1-12.5.1-8.2-4.1-12.9-10.9-12.9m33.6,51.1a4.89,4.89,0,0,1-4.8-4.9,5.06,5.06,0,0,1,4.9-5,4.84,4.84,0,0,1,4.9,4.9,5,5,0,0,1-5,5"/></svg>
