<svg xmlns="http://www.w3.org/2000/svg" viewBox="0 0 96 96"><defs><style>.cls-1{fill:#211e1e;}.cls-2{fill:#055182;}</style></defs><title>Artboard 1</title><polyline class="cls-1" points="36.15 23 2.63 73.25 21.94 73.2 48.56 33.73 36.15 23"/><polygon class="cls-1" points="24.01 73.2 42.75 73.15 61.68 45.09 49.86 34.86 24.01 73.2"/><polygon class="cls-1" points="44.82 73.15 62.73 73.11 73.08 57.89 90.61 73.04 94 73.03 62.98 46.21 44.82 73.15"/><path id="path35277" class="cls-2" d="M36.15,23,2.63,73.25l19.31,0L48.56,33.73,36.15,23"/><path id="path35279" class="cls-2" d="M63,46.21,94,73H90.61L73.08,57.89,62.73,73.11l-17.91,0Z"/><path id="path35281" class="cls-2" d="M49.86,34.86,61.68,45.09,42.75,73.15,24,73.2Z"/></svg>
