<?xml version="1.0" ?><!DOCTYPE svg  PUBLIC '-//W3C//DTD SVG 1.1//EN'  'http://www.w3.org/Graphics/SVG/1.1/DTD/svg11.dtd'><svg enable-background="new 0 0 24 24" height="24px" id="Layer_1" version="1.1" viewBox="0 0 24 24" width="24px" xml:space="preserve" xmlns="http://www.w3.org/2000/svg" xmlns:xlink="http://www.w3.org/1999/xlink"><path d="M5.8,2.5C5.4,2.8,5.4,3.6,5.8,4L10,8.2L2.2,16c-0.4,0.4-0.4,1,0,1.4l4.2,4.2c0.4,0.4,1,0.4,1.4,0l7.8-7.8l4.2,4.2  c0.4,0.4,1.2,0.4,1.6,0s0.5-1.1,0.5-1.1V3.3C22,2.8,21.2,2,20.6,2H6.9C6.9,2,6.2,2.1,5.8,2.5z M20,4v11.1l-4.1-4l-8.6,8.5l-2.9-2.8  l8.5-8.6L8.9,4H20z"/></svg>